<svg width="108" height="48" viewBox="0 0 108 48" fill="none" xmlns="http://www.w3.org/2000/svg">
<path d="M108 43.05V5.20001C108 1.73335 106.283 0 102.85 0H5.2C1.73333 0 0 1.73335 0 5.20001V43.05C0.0666667 46.35 1.8 48 5.2 48H102.85C106.217 48 107.933 46.35 108 43.05ZM105 5.20001V43C104.967 44.3333 104.25 45 102.85 45H5.2C3.8 45 3.06667 44.35 3 43.05V5.20001C3 3.73335 3.73333 3 5.2 3H102.85C104.283 3 105 3.73335 105 5.20001Z" fill="url(#paint0_linear_6_225)"/>
<path d="M105 43V5.20001C105 3.73335 104.283 3 102.85 3H5.2C3.73333 3 3 3.73335 3 5.20001V43.05C3.06667 44.35 3.8 45 5.2 45H102.85C104.25 45 104.967 44.3333 105 43Z" fill="#383838"/>
<defs>
<linearGradient id="paint0_linear_6_225" x1="54" y1="48.05" x2="54" y2="-0.0500002" gradientUnits="userSpaceOnUse">
<stop stop-color="#383838"/>
<stop offset="1" stop-color="#585858"/>
</linearGradient>
</defs>
</svg>
