<svg width="80" height="80" viewBox="0 0 80 80" fill="none" xmlns="http://www.w3.org/2000/svg">
<path d="M68.25 11.75C60.45 3.91667 51.0333 0 40 0C28.9 0 19.45 3.91667 11.65 11.75C3.88333 19.55 0 28.9667 0 40C0 51.0333 3.88333 60.4667 11.65 68.3C19.45 76.1 28.9 80 40 80C51.0333 80 60.45 76.1 68.25 68.3C76.0833 60.4667 80 51.0333 80 40C80 28.9667 76.0833 19.55 68.25 11.75ZM74.3 40C74.3 49.4333 70.9333 57.5167 64.2 64.25C57.5667 70.95 49.5 74.3 40 74.3C30.5 74.3 22.4167 70.95 15.75 64.25C9.05 57.5167 5.70001 49.4333 5.70001 40C5.70001 30.5 9.05 22.4333 15.75 15.8C22.4167 9.06665 30.5 5.70001 40 5.70001C49.5 5.70001 57.5667 9.06665 64.2 15.8C70.9333 22.4333 74.3 30.5 74.3 40Z" fill="url(#paint0_linear_121_266)"/>
<path d="M64.2002 64.2492C70.9335 57.5159 74.3002 49.4325 74.3002 39.9992C74.3002 30.4992 70.9335 22.4325 64.2002 15.7992C57.5669 9.06586 49.5002 5.69922 40.0002 5.69922C30.5002 5.69922 22.4168 9.06586 15.7502 15.7992C9.05018 22.4325 5.7002 30.4992 5.7002 39.9992C5.7002 49.4325 9.05018 57.5159 15.7502 64.2492C22.4168 70.9492 30.5002 74.2992 40.0002 74.2992C49.5002 74.2992 57.5669 70.9492 64.2002 64.2492Z" fill="white"/>
<defs>
<linearGradient id="paint0_linear_121_266" x1="40" y1="0" x2="40" y2="80" gradientUnits="userSpaceOnUse">
<stop stop-color="#FDFDFD"/>
<stop offset="1" stop-color="#E3E3E3"/>
</linearGradient>
</defs>
</svg>
