<svg width="80" height="80" viewBox="0 0 80 80" fill="none" xmlns="http://www.w3.org/2000/svg">
<path d="M80 40C80 28.9667 76.0833 19.5333 68.25 11.7C60.45 3.90001 51.0333 0 40 0C28.9 0 19.45 3.90001 11.65 11.7C3.88333 19.5333 0 28.9667 0 40C0 51.0333 3.88333 60.45 11.65 68.25C19.45 76.0833 28.9 80 40 80C51.0333 80 60.45 76.0833 68.25 68.25C76.0833 60.45 80 51.0333 80 40ZM64.2 15.75C70.9333 22.4833 74.3 30.5667 74.3 40C74.3 49.5 70.9333 57.5667 64.2 64.2C57.5667 70.9333 49.5 74.3 40 74.3C30.5 74.3 22.4167 70.9333 15.75 64.2C9.05 57.5667 5.70001 49.5 5.70001 40C5.70001 30.5667 9.05 22.4833 15.75 15.75C22.4167 9.05 30.5 5.70001 40 5.70001C49.5 5.70001 57.5667 9.05 64.2 15.75Z" fill="url(#paint0_linear_6_241)"/>
<path d="M74.3 39.9999C74.3 30.5666 70.9333 22.4833 64.2 15.7499C57.5667 9.04994 49.5 5.69995 40 5.69995C30.5 5.69995 22.4167 9.04994 15.75 15.7499C9.05 22.4833 5.70001 30.5666 5.70001 39.9999C5.70001 49.4999 9.05 57.5666 15.75 64.2C22.4167 70.9333 30.5 74.2999 40 74.2999C49.5 74.2999 57.5667 70.9333 64.2 64.2C70.9333 57.5666 74.3 49.4999 74.3 39.9999Z" fill="#383838"/>
<defs>
<linearGradient id="paint0_linear_6_241" x1="40" y1="80" x2="40" y2="0" gradientUnits="userSpaceOnUse">
<stop stop-color="#383838"/>
<stop offset="1" stop-color="#585858"/>
</linearGradient>
</defs>
</svg>
