<svg width="61" height="75" viewBox="0 0 61 75" fill="none" xmlns="http://www.w3.org/2000/svg">
<path d="M61 30.5L30.5 0L0 30.5V69.45C0 72.7833 1.66667 74.45 5 74.45H56C59.3333 74.45 61 72.7833 61 69.45V30.5ZM30.5 5.64999L57 32.15V69.45C57 70.1167 56.6667 70.45 56 70.45H5C4.33333 70.45 4 70.1167 4 69.45V32.15L30.5 5.64999Z" fill="url(#paint0_linear_121_351)"/>
<path d="M57 32.1484L30.5 5.64844L4 32.1484V69.4485C4 70.1151 4.33333 70.4485 5 70.4485H56C56.6667 70.4485 57 70.1151 57 69.4485V32.1484ZM36 52.4984C36.4333 52.4984 36.7334 52.6984 36.9 53.0984C37.0667 53.4985 37 53.8484 36.7 54.1484L31.65 59.1985C31.45 59.3985 31.2333 59.4984 31 59.4984C30.7333 59.4984 30.5 59.3985 30.3 59.1985L25.3 54.1484H25.25C25.05 53.9484 24.9667 53.7318 25 53.4984C25 53.3651 25.0167 53.2318 25.05 53.0984C25.2167 52.6984 25.5167 52.4984 25.95 52.4984H36Z" fill="url(#paint1_linear_121_351)"/>
<path d="M36.8998 53.1C36.7332 52.7 36.4332 52.5 35.9998 52.5H25.9498C25.5165 52.5 25.2165 52.7 25.0498 53.1C25.0165 53.2333 24.9998 53.3667 24.9998 53.5C24.9665 53.7333 25.0498 53.95 25.2498 54.15H25.2998L30.2998 59.2C30.4998 59.4 30.7332 59.5 30.9998 59.5C31.2332 59.5 31.4498 59.4 31.6498 59.2L36.6998 54.15C36.9998 53.85 37.0665 53.5 36.8998 53.1Z" fill="#D4D4D4"/>
<defs>
<linearGradient id="paint0_linear_121_351" x1="30.5" y1="0.5" x2="30.5" y2="73.9" gradientUnits="userSpaceOnUse">
<stop stop-color="#FDFDFD"/>
<stop offset="1" stop-color="#E3E3E3"/>
</linearGradient>
<linearGradient id="paint1_linear_121_351" x1="30.5" y1="70.0985" x2="30.5" y2="5.99844" gradientUnits="userSpaceOnUse">
<stop stop-color="#FDFDFD"/>
<stop offset="1" stop-color="#EEEEEE"/>
</linearGradient>
</defs>
</svg>
