<svg width="61" height="75" viewBox="0 0 61 75" fill="none" xmlns="http://www.w3.org/2000/svg">
<path d="M61 30.5L30.5 0L0 30.5V69.45C0 72.7833 1.66667 74.45 5 74.45H56C59.3333 74.45 61 72.7833 61 69.45V30.5ZM30.5 5.64999L57 32.15V69.45C57 70.1167 56.6667 70.45 56 70.45H5C4.33333 70.45 4 70.1167 4 69.45V32.15L30.5 5.64999Z" fill="url(#paint0_linear_6_324)"/>
<path d="M57 32.1499L30.5 5.6499L4 32.1499V69.4499C4 70.1166 4.33333 70.4499 5 70.4499H56C56.6667 70.4499 57 70.1166 57 69.4499V32.1499ZM36.9 53.0999C37.0667 53.4999 37 53.8499 36.7 54.1499L31.65 59.1999C31.45 59.3999 31.2333 59.4999 31 59.4999C30.7333 59.4999 30.5 59.3999 30.3 59.1999L25.3 54.1499H25.25C25.05 53.9499 24.9667 53.7332 25 53.4999C25 53.3666 25.0167 53.2332 25.05 53.0999C25.2167 52.6999 25.5167 52.4999 25.95 52.4999H36C36.4333 52.4999 36.7334 52.6999 36.9 53.0999Z" fill="#383838"/>
<path d="M36.7 54.15C37 53.85 37.0667 53.5 36.9 53.1C36.7334 52.7 36.4333 52.5 36 52.5H25.95C25.5167 52.5 25.2167 52.7 25.05 53.1C25.0167 53.2333 25 53.3667 25 53.5C24.9667 53.7333 25.05 53.95 25.25 54.15H25.3L30.3 59.2C30.5 59.4 30.7333 59.5 31 59.5C31.2333 59.5 31.45 59.4 31.65 59.2L36.7 54.15Z" fill="#666666"/>
<defs>
<linearGradient id="paint0_linear_6_324" x1="30.5" y1="73.9" x2="30.5" y2="0.499999" gradientUnits="userSpaceOnUse">
<stop stop-color="#383838"/>
<stop offset="1" stop-color="#585858"/>
</linearGradient>
</defs>
</svg>
