<svg width="76" height="61" viewBox="0 0 76 61" fill="none" xmlns="http://www.w3.org/2000/svg">
<path d="M75.5 30.5L45 0H5C1.66667 0 0 1.66667 0 5V56C0 59.3333 1.66667 61 5 61H45L75.5 30.5ZM43.35 4L69.85 30.5L43.35 57H5C4.33333 57 4 56.6667 4 56V5C4 4.33333 4.33333 4 5 4H43.35Z" fill="url(#paint0_linear_121_336)"/>
<path d="M69.85 30.5L43.35 4H5C4.33333 4 4 4.33333 4 5V56C4 56.6667 4.33333 57 5 57H43.35L69.85 30.5ZM15 31C15 30.7667 15.1 30.55 15.3 30.35L20.35 25.3C20.65 25 21 24.9333 21.4 25.1C21.8 25.2667 22 25.5667 22 26V36.05C22 36.4833 21.8 36.7833 21.4 36.95C21.2667 36.9833 21.1333 37 21 37C20.7667 37.0333 20.55 36.95 20.35 36.75V36.7L15.3 31.7C15.1 31.5 15 31.2667 15 31Z" fill="url(#paint1_linear_121_336)"/>
<path d="M15.3 30.351C15.1 30.551 15 30.7677 15 31.001C15 31.2677 15.1 31.501 15.3 31.701L20.35 36.701V36.751C20.55 36.951 20.7667 37.0343 21 37.001C21.1333 37.001 21.2667 36.9843 21.4 36.951C21.8 36.7843 22 36.4843 22 36.051V26.001C22 25.5677 21.8 25.2677 21.4 25.101C21 24.9343 20.65 25.001 20.35 25.301L15.3 30.351Z" fill="#D4D4D4"/>
<defs>
<linearGradient id="paint0_linear_121_336" x1="37.75" y1="0" x2="37.75" y2="61" gradientUnits="userSpaceOnUse">
<stop stop-color="#FDFDFD"/>
<stop offset="1" stop-color="#E3E3E3"/>
</linearGradient>
<linearGradient id="paint1_linear_121_336" x1="36.9" y1="57.5" x2="36.9" y2="3.5" gradientUnits="userSpaceOnUse">
<stop stop-color="#FDFDFD"/>
<stop offset="1" stop-color="#EEEEEE"/>
</linearGradient>
</defs>
</svg>
