<svg width="75" height="61" viewBox="0 0 75 61" fill="none" xmlns="http://www.w3.org/2000/svg">
<path d="M74.45 56V5C74.45 1.66667 72.7833 0 69.45 0H30.5L0 30.5L30.5 61H69.45C72.7833 61 74.45 59.3333 74.45 56ZM69.45 4C70.1167 4 70.45 4.33333 70.45 5V56C70.45 56.6667 70.1167 57 69.45 57H32.15L5.65002 30.5L32.15 4H69.45Z" fill="url(#paint0_linear_6_309)"/>
<path d="M70.45 5C70.45 4.33333 70.1167 4 69.45 4H32.15L5.65002 30.5L32.15 57H69.45C70.1167 57 70.45 56.6667 70.45 56V5ZM52.5 26C52.5 25.5667 52.7 25.2667 53.1 25.1C53.5 24.9333 53.85 25 54.15 25.3L59.2 30.35C59.4 30.55 59.5 30.7667 59.5 31C59.5 31.2667 59.4 31.5 59.2 31.7L54.15 36.7V36.75C53.95 36.95 53.7333 37.0333 53.5 37C53.3667 37 53.2333 36.9833 53.1 36.95C52.7 36.7833 52.5 36.4833 52.5 36.05V26Z" fill="#383838"/>
<path d="M53.1 25.1C52.7 25.2667 52.5 25.5667 52.5 26V36.05C52.5 36.4834 52.7 36.7834 53.1 36.95C53.2333 36.9834 53.3667 37 53.5 37C53.7333 37.0334 53.95 36.95 54.15 36.75V36.7L59.2 31.7C59.4 31.5 59.5 31.2667 59.5 31C59.5 30.7667 59.4 30.55 59.2 30.35L54.15 25.3C53.85 25 53.5 24.9334 53.1 25.1Z" fill="#666666"/>
<defs>
<linearGradient id="paint0_linear_6_309" x1="37.2" y1="61.5" x2="37.2" y2="-0.5" gradientUnits="userSpaceOnUse">
<stop stop-color="#383838"/>
<stop offset="1" stop-color="#585858"/>
</linearGradient>
</defs>
</svg>
