<svg width="75" height="61" viewBox="0 0 75 61" fill="none" xmlns="http://www.w3.org/2000/svg">
<path d="M74.45 56V5C74.45 1.66667 72.7833 0 69.45 0H30.5L0 30.5L30.5 61H69.45C72.7833 61 74.45 59.3333 74.45 56ZM69.45 4C70.1167 4 70.45 4.33333 70.45 5V56C70.45 56.6667 70.1167 57 69.45 57H32.15L5.65002 30.5L32.15 4H69.45Z" fill="url(#paint0_linear_121_341)"/>
<path d="M70.4499 5C70.4499 4.33333 70.1166 4 69.4499 4H32.1499L5.6499 30.5L32.1499 57H69.4499C70.1166 57 70.4499 56.6667 70.4499 56V5ZM52.4999 26C52.4999 25.5667 52.6999 25.2667 53.0999 25.1C53.4999 24.9333 53.8499 25 54.1499 25.3L59.1999 30.35C59.3999 30.55 59.4999 30.7667 59.4999 31C59.4999 31.2667 59.3999 31.5 59.1999 31.7L54.1499 36.7V36.75C53.9499 36.95 53.7332 37.0333 53.4999 37C53.3665 37 53.2332 36.9833 53.0999 36.95C52.6999 36.7833 52.4999 36.4833 52.4999 36.05V26Z" fill="url(#paint1_linear_121_341)"/>
<path d="M53.1 25.101C52.7 25.2677 52.5 25.5677 52.5 26.001V36.051C52.5 36.4843 52.7 36.7843 53.1 36.951C53.2333 36.9843 53.3667 37.001 53.5 37.001C53.7333 37.0343 53.95 36.951 54.15 36.751V36.701L59.2 31.701C59.4 31.501 59.5 31.2677 59.5 31.001C59.5 30.7677 59.4 30.551 59.2 30.351L54.15 25.301C53.85 25.001 53.5 24.9343 53.1 25.101Z" fill="#D4D4D4"/>
<defs>
<linearGradient id="paint0_linear_121_341" x1="37.2" y1="-0.5" x2="37.2" y2="61.5" gradientUnits="userSpaceOnUse">
<stop stop-color="#FDFDFD"/>
<stop offset="1" stop-color="#E3E3E3"/>
</linearGradient>
<linearGradient id="paint1_linear_121_341" x1="38.0499" y1="57.5" x2="38.0499" y2="3.5" gradientUnits="userSpaceOnUse">
<stop stop-color="#FDFDFD"/>
<stop offset="1" stop-color="#EEEEEE"/>
</linearGradient>
</defs>
</svg>
