<svg width="61" height="76" viewBox="0 0 61 76" fill="none" xmlns="http://www.w3.org/2000/svg">
<path d="M61 5C61 1.66667 59.3333 0 56 0H5C1.66667 0 0 1.66667 0 5V45L30.5 75.5L61 45V5ZM56 4C56.6667 4 57 4.33333 57 5V43.35L30.5 69.85L4 43.35V5C4 4.33333 4.33333 4 5 4H56Z" fill="url(#paint0_linear_121_346)"/>
<path d="M57 5C57 4.33333 56.6667 4 56 4H5C4.33333 4 4 4.33333 4 5V43.35L30.5 69.85L57 43.35V5ZM31.65 15.3L36.7 20.35C37 20.65 37.0667 21 36.9 21.4C36.7334 21.8 36.4333 22 36 22H25.95C25.5167 22 25.2167 21.8 25.05 21.4C25.0167 21.2667 25 21.1333 25 21C24.9667 20.7667 25.05 20.55 25.25 20.35H25.3L30.3 15.3C30.5 15.1 30.7333 15 31 15C31.2333 15 31.45 15.1 31.65 15.3Z" fill="url(#paint1_linear_121_346)"/>
<path d="M36.6998 20.35L31.6498 15.3C31.4498 15.1 31.2332 15 30.9998 15C30.7332 15 30.4998 15.1 30.2998 15.3L25.2998 20.35H25.2498C25.0498 20.55 24.9665 20.7667 24.9998 21C24.9998 21.1333 25.0165 21.2667 25.0498 21.4C25.2165 21.8 25.5165 22 25.9498 22H35.9998C36.4332 22 36.7332 21.8 36.8998 21.4C37.0665 21 36.9998 20.65 36.6998 20.35Z" fill="#D4D4D4"/>
<defs>
<linearGradient id="paint0_linear_121_346" x1="30.5" y1="0" x2="30.5" y2="75.5" gradientUnits="userSpaceOnUse">
<stop stop-color="#FDFDFD"/>
<stop offset="1" stop-color="#E3E3E3"/>
</linearGradient>
<linearGradient id="paint1_linear_121_346" x1="30.45" y1="69.9" x2="30.45" y2="4" gradientUnits="userSpaceOnUse">
<stop stop-color="#FDFDFD"/>
<stop offset="1" stop-color="#EEEEEE"/>
</linearGradient>
</defs>
</svg>
