<svg width="32" height="32" viewBox="0 0 32 32" fill="none" xmlns="http://www.w3.org/2000/svg">
<path d="M27.4286 14.2857H25V6.28571C25 3.76071 22.9536 1.71429 20.4286 1.71429H11.5714C9.04643 1.71429 7 3.76071 7 6.28571V14.2857H4.57143C3.93929 14.2857 3.42857 14.7964 3.42857 15.4286V29.1429C3.42857 29.775 3.93929 30.2857 4.57143 30.2857H27.4286C28.0607 30.2857 28.5714 29.775 28.5714 29.1429V15.4286C28.5714 14.7964 28.0607 14.2857 27.4286 14.2857ZM17 22.75V24.6429C17 24.8 16.8714 24.9286 16.7143 24.9286H15.2857C15.1286 24.9286 15 24.8 15 24.6429V22.75C14.7052 22.5383 14.4851 22.2386 14.3715 21.8939C14.2579 21.5492 14.2566 21.1774 14.3678 20.8319C14.479 20.4864 14.6969 20.1851 14.9902 19.9714C15.2835 19.7577 15.6371 19.6425 16 19.6425C16.3629 19.6425 16.7165 19.7577 17.0098 19.9714C17.3031 20.1851 17.521 20.4864 17.6322 20.8319C17.7434 21.1774 17.7421 21.5492 17.6285 21.8939C17.5149 22.2386 17.2948 22.5383 17 22.75ZM22.4286 14.2857H9.57143V6.28571C9.57143 5.18214 10.4679 4.28571 11.5714 4.28571H20.4286C21.5321 4.28571 22.4286 5.18214 22.4286 6.28571V14.2857Z" fill="white"/>
</svg>
